<svg width="1519" height="720" viewBox="0 0 1519 720" fill="none" xmlns="http://www.w3.org/2000/svg">
<g id="home-bg.19753168 1" clip-path="url(#clip0)">
<path id="TUL" d="M-5.032 192.168C-9.448 192.168 -13.288 190.632 -16.552 187.56C-19.816 184.296 -21.448 180.456 -21.448 176.04V175.176C-21.448 170.76 -19.816 166.92 -16.552 163.656C-13.288 160.392 -9.448 158.76 -5.032 158.76H117.656C122.072 158.76 125.912 160.392 129.176 163.656C132.44 166.92 134.072 170.76 134.072 175.176V176.04C134.072 180.456 132.44 184.296 129.176 187.56C125.912 190.632 122.072 192.168 117.656 192.168H79.064C77.528 192.168 76.76 193.032 76.76 194.76V352.584C76.76 357 75.128 360.84 71.864 364.104C68.6 367.368 64.76 369 60.344 369H52.28C47.864 369 44.024 367.368 40.76 364.104C37.496 360.84 35.864 357 35.864 352.584V194.76C35.864 193.032 35.096 192.168 33.56 192.168H-5.032ZM325.142 294.12C325.142 345.96 299.222 371.88 247.382 371.88C195.542 371.88 169.622 345.96 169.622 294.12V175.176C169.622 170.76 171.254 166.92 174.518 163.656C177.782 160.392 181.622 158.76 186.038 158.76H194.102C198.518 158.76 202.358 160.392 205.622 163.656C208.886 166.92 210.518 170.76 210.518 175.176V296.424C210.518 311.4 213.494 322.248 219.446 328.968C225.59 335.496 235.094 338.76 247.958 338.76C260.822 338.76 270.23 335.496 276.182 328.968C282.326 322.248 285.398 311.4 285.398 296.424V175.176C285.398 170.76 287.03 166.92 290.294 163.656C293.558 160.392 297.398 158.76 301.814 158.76H308.726C313.142 158.76 316.982 160.392 320.246 163.656C323.51 166.92 325.142 170.76 325.142 175.176V294.12ZM383.818 369C379.402 369 375.562 367.368 372.298 364.104C369.226 360.84 367.69 357 367.69 352.584V175.176C367.69 170.76 369.226 166.92 372.298 163.656C375.562 160.392 379.402 158.76 383.818 158.76H393.034C397.45 158.76 401.29 160.392 404.554 163.656C407.818 166.92 409.45 170.76 409.45 175.176V333C409.45 334.728 410.218 335.592 411.754 335.592H485.77C490.186 335.592 493.93 337.224 497.001 340.488C500.266 343.56 501.898 347.304 501.898 351.72V352.584C501.898 357 500.266 360.84 497.001 364.104C493.93 367.368 490.186 369 485.77 369H383.818Z" fill="white" fill-opacity="0.01"/>
<g id="Group 3">
<g id="Group">
<g id="Group_2">
<path id="Vector" d="M1666 595.091H1561.2C1527.67 595.091 1496.64 606.691 1471.35 626.391M1560.83 933.091C1475.87 933.091 1407 857.656 1407 764.603C1406.88 733.761 1414.7 703.408 1429.7 676.461L1560.83 933.091Z" stroke="#F80332" stroke-width="13" stroke-linecap="round" stroke-linejoin="round"/>
</g>
<g id="Group_3">
<g id="Group_4">
<path id="Vector_2" d="M1150.75 672.091H1145.94C1137.8 672.095 1129.74 673.701 1122.23 676.819C1114.71 679.937 1107.88 684.505 1102.13 690.263C1096.38 696.02 1091.82 702.853 1088.71 710.374C1085.6 717.894 1084 725.953 1084 734.091C1083.99 750.526 1090.51 766.291 1102.13 777.919C1113.74 789.546 1129.5 796.082 1145.94 796.091H1289.06C1305.5 796.082 1321.26 789.546 1332.87 777.919C1344.49 766.291 1351.01 750.526 1351 734.091C1351.01 717.655 1344.49 701.89 1332.87 690.263C1321.26 678.636 1305.5 672.099 1289.06 672.091H1284.25" stroke="#EFC518" stroke-width="13" stroke-linecap="round" stroke-linejoin="round"/>
</g>
</g>
<path id="Vector_3" d="M1123.5 46.0907V230.091" stroke="#09F755" stroke-width="13" stroke-linecap="round" stroke-linejoin="round"/>
</g>
<path id="Vector_4" d="M1536 402.091C1570.79 402.091 1599 373.885 1599 339.091C1599 304.297 1570.79 276.091 1536 276.091C1501.21 276.091 1473 304.297 1473 339.091C1473 373.885 1501.21 402.091 1536 402.091Z" stroke="#09F755" stroke-width="13" stroke-linejoin="round"/>
<path id="Star 1" d="M1285.74 234.588L1285.73 234.565L1285.73 234.542L1270.62 193.33L1298.94 173.342L1344.66 144.854L1361.36 191.186C1362.43 194.16 1365.25 196.142 1368.42 196.142L1422.62 196.142L1410.26 234.561L1394.51 273.79H1347H1299.63L1285.74 234.588Z" stroke="#5AD5E6" stroke-width="9"/>
<path id="Polygon 1" d="M1205.95 -7.99354L1248.46 -138.039L1283.42 -3.97794L1283.42 83.2028L1205.95 -7.99354Z" stroke="#09F755" stroke-width="8"/>
<path id="Vector_5" d="M1516 72.0907C1550.79 72.0907 1579 43.8846 1579 9.0907C1579 -25.7032 1550.79 -53.9093 1516 -53.9093C1481.21 -53.9093 1453 -25.7032 1453 9.0907C1453 43.8846 1481.21 72.0907 1516 72.0907Z" stroke="#09F755" stroke-width="13" stroke-linejoin="round"/>
<path id="Vector_6" d="M1385.7 74.8201C1434.14 136.503 1510.21 157.593 1555.63 121.932C1601.04 86.2707 1598.59 7.36407 1550.15 -54.3189C1501.71 -116.002 1425.64 -137.092 1380.23 -101.431" stroke="#EFC518" stroke-width="13" stroke-linecap="round" stroke-linejoin="round"/>
<g id="Group 1">
<path id="Polygon 2" d="M1117.43 424.269L1151.5 348.81L1185.57 424.269H1117.43Z" stroke="#FF0000" stroke-width="8"/>
<path id="Polygon 3" d="M1117.43 534.365L1151.5 458.906L1185.57 534.365H1117.43Z" stroke="#FF0000" stroke-width="8"/>
</g>
<g id="Group 2">
<path id="Line 1" d="M1298.38 422.969L1351.05 480.602C1351.44 481.026 1352.1 481.038 1352.5 480.629L1409 422.969" stroke="#00FFE0" stroke-width="10"/>
<path id="Line 2" d="M1298.38 560.152L1348.99 499.307C1349.38 498.84 1350.09 498.826 1350.5 499.278L1405.56 560.152" stroke="#00FFE0" stroke-width="10"/>
</g>
</g>
</g>
<defs>
<clipPath id="clip0">
<rect width="1519" height="720" fill="white"/>
</clipPath>
</defs>
</svg>
