<svg width="1280" height="720" viewBox="0 0 1280 720" fill="none" xmlns="http://www.w3.org/2000/svg">
<g id="home-bg.19753168 1" clip-path="url(#clip0)">
<g id="Group">
<g id="Group_2">
<path id="Vector" d="M1410 602H1305.2C1271.67 602 1240.64 613.6 1215.35 633.3M1304.83 940C1219.87 940 1151 864.565 1151 771.512C1150.88 740.671 1158.7 710.317 1173.7 683.37L1304.83 940Z" stroke="#F80332" stroke-width="13" stroke-linecap="round" stroke-linejoin="round"/>
<path id="Vector_2" d="M829 424.5C829 482 829 483.068 829 514.354C829 545.64 854.744 571 886.5 571C918.256 571 944 545.64 944 514.354V283" stroke="#F80332" stroke-width="13" stroke-linecap="round" stroke-linejoin="round"/>
</g>
<g id="Group_3">
<path id="Vector_3" d="M1104 598C1098.1 598.005 1092.25 596.74 1086.79 594.276C1081.33 591.812 1076.37 588.198 1072.2 583.64C1068.02 579.082 1064.7 573.669 1062.44 567.71C1060.17 561.752 1059 555.364 1059 548.912V409.088C1059 402.636 1060.17 396.248 1062.44 390.29C1064.7 384.331 1068.02 378.919 1072.2 374.36C1076.37 369.802 1081.33 366.188 1086.79 363.724C1092.25 361.26 1098.1 359.995 1104 360V360C1109.9 359.995 1115.75 361.26 1121.21 363.724C1126.67 366.188 1131.63 369.802 1135.8 374.36C1139.98 378.919 1143.3 384.331 1145.56 390.29C1147.83 396.248 1148.99 402.636 1149 409.088V548.912C1148.99 555.364 1147.83 561.752 1145.56 567.71C1143.3 573.669 1139.98 579.082 1135.8 583.64C1131.63 588.198 1126.67 591.812 1121.21 594.276C1115.75 596.74 1109.9 598.005 1104 598V598Z" stroke="#FFD600" stroke-width="13" stroke-linejoin="round"/>
<g id="Group_4">
<path id="Vector_4" d="M894.75 679H889.94C881.802 679.004 873.744 680.611 866.227 683.729C858.71 686.847 851.881 691.415 846.129 697.172C840.377 702.929 835.816 709.763 832.705 717.283C829.595 724.803 827.996 732.862 828 741C827.992 757.435 834.513 773.201 846.129 784.828C857.745 796.455 873.503 802.992 889.939 803H1033.06C1049.5 802.992 1065.25 796.455 1076.87 784.828C1088.49 773.201 1095.01 757.435 1095 741V741C1095.01 724.565 1088.49 708.799 1076.87 697.172C1065.25 685.545 1049.5 679.008 1033.06 679H1028.25" stroke="#EFC518" stroke-width="13" stroke-linecap="round" stroke-linejoin="round"/>
</g>
</g>
<path id="Vector_5" d="M867.5 53V237" stroke="#09F755" stroke-width="13" stroke-linecap="round" stroke-linejoin="round"/>
</g>
<path id="Vector_6" d="M1280 409C1314.79 409 1343 380.794 1343 346C1343 311.206 1314.79 283 1280 283C1245.21 283 1217 311.206 1217 346C1217 380.794 1245.21 409 1280 409Z" stroke="#09F755" stroke-width="13" stroke-linejoin="round"/>
<path id="Star 1" d="M1088.66 151.763L1106.07 200.078L1107.15 203.051H1110.31L1166.62 203.051L1154.26 241.471L1138.51 280.699H1091H1043.63L1029.74 241.497L1029.73 241.474L1029.73 241.451L1014.62 200.24L1042.94 180.251L1088.66 151.763Z" stroke="#5AD5E6" stroke-width="9"/>
<path id="Polygon 1" d="M948.227 6.34886L988.5 -126.237L1028.77 6.34886L988.5 110.874L948.227 6.34886Z" stroke="#09F755" stroke-width="8"/>
<path id="Vector_7" d="M1260 79C1294.79 79 1323 50.7939 1323 16C1323 -18.7939 1294.79 -47 1260 -47C1225.21 -47 1197 -18.7939 1197 16C1197 50.7939 1225.21 79 1260 79Z" stroke="#09F755" stroke-width="13" stroke-linejoin="round"/>
<path id="Vector_8" d="M1129.7 81.7294C1178.14 143.412 1254.21 164.502 1299.63 128.841C1345.04 93.18 1342.59 14.2734 1294.15 -47.4096C1245.71 -109.093 1169.64 -130.182 1124.23 -94.5212" stroke="#EFC518" stroke-width="13" stroke-linecap="round" stroke-linejoin="round"/>
</g>
<defs>
<clipPath id="clip0">
<rect width="1280" height="720" fill="white"/>
</clipPath>
</defs>
</svg>
