<svg width="2087" height="1323" viewBox="0 0 2087 1323" fill="none" xmlns="http://www.w3.org/2000/svg">
<g filter="url(#filter0_di)">
<line x1="320.594" y1="142" x2="629.281" y2="142" stroke="#D8A3D2" stroke-width="20"/>
<line y1="-10" x2="95.5226" y2="-10" transform="matrix(0.981738 0.190236 -0.178514 0.983937 629.281 152)" stroke="black" stroke-width="20"/>
<line y1="-10" x2="1081.68" y2="-10" transform="matrix(0.275444 0.961317 -0.956226 0.29263 723.059 170.172)" stroke="#5CCDB2" stroke-width="20"/>
<line y1="-10" x2="1089.67" y2="-10" transform="matrix(-0.28687 0.95797 -0.95247 -0.304633 320.594 152)" stroke="#00FFE0" stroke-width="20"/>
<line y1="-10" x2="111.04" y2="-10" transform="matrix(0.325501 0.945542 -0.93857 0.345089 8 1210.01)" stroke="#81DEC2" stroke-width="20"/>
<line y1="-10" x2="315.03" y2="-10" transform="matrix(0.995368 -0.0961383 0.090064 0.995936 44.1437 1315)" stroke="#D8A3D2" stroke-width="20"/>
<line y1="-10" x2="173.987" y2="-10" transform="matrix(-0.247039 0.969005 -0.964871 -0.262725 400.696 1116.12)" stroke="black" stroke-width="20"/>
<line y1="-10" x2="229.661" y2="-10" transform="matrix(0.995313 -0.0967081 0.0905984 0.995888 400.696 1116.12)" stroke="#EEEBA1" stroke-width="20"/>
<line y1="-10" x2="49.9567" y2="-10" transform="matrix(0.312865 0.949798 -0.943322 0.331878 629.281 1093.91)" stroke="black" stroke-width="20"/>
<line y1="-10" x2="126.077" y2="-10" transform="matrix(0.619846 0.784723 -0.764331 0.644825 644.91 1141.36)" stroke="black" stroke-width="20"/>
<line y1="-10" x2="299.477" y2="-10" transform="matrix(0.994873 -0.101131 0.0947473 0.995501 723.059 1240.29)" stroke="#EEEBA1" stroke-width="20"/>
<line y1="-10" x2="103.217" y2="-10" transform="matrix(-0.20821 0.978084 -0.975114 -0.221705 514.012 673.937)" stroke="#001AFF" stroke-width="20"/>
<line y1="-10" x2="88.4517" y2="-10" transform="matrix(0.320274 0.947325 -0.94056 0.339628 514.988 673.937)" stroke="#9A3690" stroke-width="20"/>
<line y1="-10" x2="53.6175" y2="-10" transform="matrix(0.947388 -0.320088 0.301605 0.953433 492.521 774.891)" stroke="#24FF00" stroke-width="20"/>
<line y1="-10" x2="53.6175" y2="-10" transform="matrix(0.947388 -0.320088 0.301605 0.953433 492.521 774.891)" stroke="url(#paint0_linear)" stroke-width="20"/>
<line y1="-10" x2="399.739" y2="-10" transform="matrix(0.982245 -0.187603 0.174687 0.984624 8 1190.83)" stroke="black" stroke-width="20"/>
<line y1="-10" x2="399.739" y2="-10" transform="matrix(0.982245 -0.187603 0.174687 0.984624 8 1190.83)" stroke="url(#paint1_linear)" stroke-width="20"/>
<line y1="-10" x2="333.439" y2="-10" transform="matrix(0.963852 -0.266437 0.25056 0.968101 637.095 1093.91)" stroke="black" stroke-width="20"/>
<line y1="-10" x2="333.439" y2="-10" transform="matrix(0.963852 -0.266437 0.25056 0.968101 637.095 1093.91)" stroke="url(#paint2_linear)" stroke-width="20"/>
<line y1="-10" x2="361.172" y2="-10" transform="matrix(-0.254241 0.967141 -0.962772 -0.270316 492.521 766.815)" stroke="#81DEC2" stroke-width="20"/>
<line y1="-10" x2="349.015" y2="-10" transform="matrix(0.268694 0.963225 -0.958369 0.285533 543.317 757.729)" stroke="#3C6370" stroke-width="20"/>
<line y1="-10" x2="714.486" y2="-10" transform="matrix(0.745224 0.666815 -0.64219 0.766546 320.594 152)" stroke="#24FF00" stroke-width="20"/>
<line y1="-10" x2="712.076" y2="-10" transform="matrix(-0.764117 0.645078 -0.620103 -0.78452 723.059 170.172)" stroke="black" stroke-width="20"/>
<line y1="-10" x2="712.076" y2="-10" transform="matrix(-0.764117 0.645078 -0.620103 -0.78452 723.059 170.172)" stroke="url(#paint3_linear)" stroke-width="20"/>
<line y1="-10" x2="101.969" y2="-10" transform="matrix(-0.0102933 -0.999947 0.99994 -0.0109937 514.988 673.937)" stroke="black" stroke-width="20"/>
<line y1="-10" x2="319.26" y2="-10" transform="matrix(-0.413067 0.910701 -0.899959 -0.435974 514.012 571.972)" stroke="#00FFE0" stroke-width="20"/>
<line y1="-10" x2="326.47" y2="-10" transform="matrix(0.454811 0.890588 -0.877901 0.478843 514.012 571.972)" stroke="black" stroke-width="20"/>
<line y1="-10" x2="326.47" y2="-10" transform="matrix(0.454811 0.890588 -0.877901 0.478843 514.012 571.972)" stroke="url(#paint4_linear)" stroke-width="20"/>
<line x1="382.136" y1="852.722" x2="662.494" y2="852.722" stroke="#5CCDB2" stroke-width="20"/>
<line y1="-10" x2="409.158" y2="-10" transform="matrix(0.680431 0.732812 -0.710044 0.704158 122.292 818.302)" stroke="black" stroke-width="20"/>
<line y1="-10" x2="409.158" y2="-10" transform="matrix(0.680431 0.732812 -0.710044 0.704158 122.292 818.302)" stroke="url(#paint5_linear)" stroke-width="20"/>
<line y1="-10" x2="394.849" y2="-10" transform="matrix(0.690247 -0.723574 0.700471 0.713681 629.281 1093.91)" stroke="#3C6370" stroke-width="20"/>
<line x1="1205.57" y1="102.103" x2="1837.48" y2="10.5356" stroke="#D8A3D2" stroke-width="20"/>
<line x1="1214.84" y1="118.202" x2="1146.84" y2="204.202" stroke="black" stroke-width="20"/>
<line x1="1149" y1="198" x2="1149" y2="284" stroke="black" stroke-width="20"/>
<line x1="1146.36" y1="277.234" x2="1180.36" y2="314.234" stroke="black" stroke-width="20"/>
<line x1="1175.66" y1="311.361" x2="1356.66" y2="361.361" stroke="#81DEC2" stroke-width="20"/>
<line x1="1352.67" y1="361.089" x2="1434.67" y2="350.089" stroke="#81DEC2" stroke-width="20"/>
<line x1="1755.41" y1="311.127" x2="1984.44" y2="274.284" stroke="black" stroke-width="20"/>
<line x1="1978.99" y1="276.869" x2="2037.99" y2="218.869" stroke="black" stroke-width="20"/>
<line x1="1841.4" y1="10.2925" x2="2027.4" y2="56.2925" stroke="#00FFE0" stroke-width="20"/>
<line x1="2034.07" y1="61.7954" x2="2072.07" y2="143.795" stroke="black" stroke-width="20"/>
<line x1="2072.74" y1="150.249" x2="2054.74" y2="228.249" stroke="black" stroke-width="20"/>
<line x1="1445.99" y1="360.359" x2="1416.99" y2="1167.36" stroke="#00FFE0" stroke-width="20"/>
<line x1="1416.46" y1="1163.75" x2="1439.46" y2="1230.75" stroke="#5CCDB2" stroke-width="20"/>
<line x1="1436.33" y1="1226.26" x2="1469.33" y2="1253.26" stroke="#9A3690" stroke-width="20"/>
<line x1="1465.47" y1="1251.31" x2="1618.47" y2="1290.31" stroke="#3C6370" stroke-width="20"/>
<line x1="1614" y1="1290.2" x2="1658" y2="1281.2" stroke="#9A3690" stroke-width="20"/>
<line x1="1652.48" y1="1284.41" x2="1702.48" y2="1227.41" stroke="#001AFF" stroke-width="20"/>
<line x1="1731.49" y1="1204.16" x2="1719.49" y2="1240.16" stroke="black" stroke-width="20"/>
<line x1="1712.01" y1="1200.6" x2="1747.01" y2="320.603" stroke="#FF0000" stroke-width="20"/>
<line x1="1434.79" y1="350.073" x2="1755.79" y2="311.073" stroke="#5CCDB2" stroke-width="20"/>
<line x1="1428.65" y1="366.784" x2="1199.65" y2="118.784" stroke="#24FF00" stroke-width="20"/>
<line x1="1747.37" y1="318.322" x2="1829.62" y2="22.3935" stroke="#EEEBA1" stroke-width="20"/>
<line x1="1399.95" y1="1159.91" x2="1726.95" y2="834.907" stroke="#FF0000" stroke-width="20"/>
<line x1="1714.34" y1="1207.42" x2="1413.34" y2="848.425" stroke="#9A3690" stroke-width="20"/>
<line x1="1210.55" y1="102.652" x2="1760.55" y2="311.652" stroke="#5CCDB2" stroke-width="20"/>
<line x1="1845.45" y1="27.6432" x2="1442.45" y2="367.643" stroke="#3C6370" stroke-width="20"/>
<line x1="1444.51" y1="354.741" x2="1742.51" y2="836.741" stroke="#3C6370" stroke-width="20"/>
<line x1="1412.6" y1="836.58" x2="1748.6" y2="315.58" stroke="#24FF00" stroke-width="20"/>
<line x1="2034.84" y1="67.761" x2="1995.84" y2="285.761" stroke="#FF0000" stroke-width="20"/>
<line x1="2035.08" y1="227.24" x2="2015.08" y2="67.2404" stroke="black" stroke-width="20"/>
<line x1="1977.3" y1="279.073" x2="2054.3" y2="143.073" stroke="#24FF00" stroke-width="20"/>
<line x1="1148.62" y1="195.274" x2="1182.62" y2="315.274" stroke="#001AFF" stroke-width="20"/>
<line x1="1129.4" y1="281.186" x2="1168.4" y2="148.186" stroke="#FF0000" stroke-width="20"/>
</g>
<defs>
<filter id="filter0_di" x="0.506226" y="0.584961" width="2085.98" height="1322.42" filterUnits="userSpaceOnUse" color-interpolation-filters="sRGB">
<feFlood flood-opacity="0" result="BackgroundImageFix"/>
<feColorMatrix in="SourceAlpha" type="matrix" values="0 0 0 0 0 0 0 0 0 0 0 0 0 0 0 0 0 0 127 0"/>
<feOffset dy="4"/>
<feGaussianBlur stdDeviation="2"/>
<feColorMatrix type="matrix" values="0 0 0 0 0 0 0 0 0 0 0 0 0 0 0 0 0 0 0.25 0"/>
<feBlend mode="normal" in2="BackgroundImageFix" result="effect1_dropShadow"/>
<feBlend mode="normal" in="SourceGraphic" in2="effect1_dropShadow" result="shape"/>
<feColorMatrix in="SourceAlpha" type="matrix" values="0 0 0 0 0 0 0 0 0 0 0 0 0 0 0 0 0 0 127 0" result="hardAlpha"/>
<feOffset dx="4" dy="4"/>
<feGaussianBlur stdDeviation="2"/>
<feComposite in2="hardAlpha" operator="arithmetic" k2="-1" k3="1"/>
<feColorMatrix type="matrix" values="0 0 0 0 0 0 0 0 0 0 0 0 0 0 0 0 0 0 0.25 0"/>
<feBlend mode="normal" in2="shape" result="effect2_innerShadow"/>
</filter>
<linearGradient id="paint0_linear" x1="26.8087" y1="0" x2="26.8087" y2="1" gradientUnits="userSpaceOnUse">
<stop stop-color="#2D9A94"/>
<stop offset="1" stop-color="#429B96" stop-opacity="0.97"/>
</linearGradient>
<linearGradient id="paint1_linear" x1="199.87" y1="0" x2="199.87" y2="1" gradientUnits="userSpaceOnUse">
<stop stop-color="#2D9A94"/>
<stop offset="1" stop-color="#429B96" stop-opacity="0.97"/>
</linearGradient>
<linearGradient id="paint2_linear" x1="166.719" y1="0" x2="166.719" y2="1" gradientUnits="userSpaceOnUse">
<stop stop-color="#FF0000"/>
<stop offset="1" stop-color="white" stop-opacity="0"/>
</linearGradient>
<linearGradient id="paint3_linear" x1="356.038" y1="0" x2="356.038" y2="1" gradientUnits="userSpaceOnUse">
<stop stop-color="#2D9A94"/>
<stop offset="1" stop-color="#429B96" stop-opacity="0.97"/>
</linearGradient>
<linearGradient id="paint4_linear" x1="163.235" y1="0" x2="163.235" y2="1" gradientUnits="userSpaceOnUse">
<stop stop-color="#FF0000"/>
<stop offset="1" stop-color="white" stop-opacity="0"/>
</linearGradient>
<linearGradient id="paint5_linear" x1="204.579" y1="0" x2="204.579" y2="1" gradientUnits="userSpaceOnUse">
<stop stop-color="#FF0000"/>
<stop offset="1" stop-color="white" stop-opacity="0"/>
</linearGradient>
</defs>
</svg>
