<svg width="2087" height="1323" viewBox="0 0 2087 1323" fill="none" xmlns="http://www.w3.org/2000/svg">
<g filter="url(#filter0_di)">
<line x1="321.594" y1="142" x2="630.281" y2="142" stroke="#D8A3D2" stroke-width="20"/>
<path d="M632.066 142.161L740 170.5" stroke="black" stroke-width="20"/>
<line y1="-10" x2="1081.68" y2="-10" transform="matrix(0.275444 0.961317 -0.956226 0.29263 724.059 170.172)" stroke="#5CCDB2" stroke-width="20"/>
<line y1="-10" x2="1089.67" y2="-10" transform="matrix(-0.28687 0.95797 -0.95247 -0.304633 321.594 152)" stroke="#00FFE0" stroke-width="20"/>
<line x1="13.4912" y1="1187.85" x2="54.6349" y2="1311.85" stroke="#81DEC2" stroke-width="20"/>
<line x1="44.2406" y1="1305.04" x2="373.113" y2="1275.22" stroke="#D8A3D2" stroke-width="20"/>
<line y1="-10" x2="173.987" y2="-10" transform="matrix(-0.247039 0.969005 -0.964871 -0.262725 401.696 1116.12)" stroke="black" stroke-width="20"/>
<line y1="-10" x2="229.661" y2="-10" transform="matrix(0.995313 -0.0967081 0.0905984 0.995888 401.696 1116.12)" stroke="#EEEBA1" stroke-width="20"/>
<line y1="-10" x2="49.9567" y2="-10" transform="matrix(0.312865 0.949798 -0.943322 0.331878 630.281 1093.91)" stroke="black" stroke-width="20"/>
<line y1="-10" x2="126.077" y2="-10" transform="matrix(0.619846 0.784723 -0.764331 0.644825 645.91 1141.36)" stroke="black" stroke-width="20"/>
<line y1="-10" x2="299.477" y2="-10" transform="matrix(0.994873 -0.101131 0.0947473 0.995501 724.059 1240.29)" stroke="#EEEBA1" stroke-width="20"/>
<line y1="-10" x2="103.217" y2="-10" transform="matrix(-0.20821 0.978084 -0.975114 -0.221705 515.012 673.937)" stroke="#001AFF" stroke-width="20"/>
<line y1="-10" x2="88.4517" y2="-10" transform="matrix(0.320274 0.947325 -0.94056 0.339628 515.988 673.937)" stroke="#9A3690" stroke-width="20"/>
<line x1="500.696" y1="769.561" x2="560.696" y2="748.561" stroke="#24FF00" stroke-width="20"/>
<line x1="500.696" y1="769.561" x2="560.696" y2="748.561" stroke="url(#paint0_linear)" stroke-width="20"/>
<line y1="-10" x2="399.739" y2="-10" transform="matrix(0.982245 -0.187603 0.174687 0.984624 9 1190.83)" stroke="black" stroke-width="20"/>
<line y1="-10" x2="399.739" y2="-10" transform="matrix(0.982245 -0.187603 0.174687 0.984624 9 1190.83)" stroke="url(#paint1_linear)" stroke-width="20"/>
<line y1="-10" x2="333.439" y2="-10" transform="matrix(0.963852 -0.266437 0.25056 0.968101 638.095 1093.91)" stroke="black" stroke-width="20"/>
<line y1="-10" x2="333.439" y2="-10" transform="matrix(0.963852 -0.266437 0.25056 0.968101 638.095 1093.91)" stroke="url(#paint2_linear)" stroke-width="20"/>
<line y1="-10" x2="361.172" y2="-10" transform="matrix(-0.254241 0.967141 -0.962772 -0.270316 493.521 766.815)" stroke="#81DEC2" stroke-width="20"/>
<line y1="-10" x2="349.015" y2="-10" transform="matrix(0.268694 0.963225 -0.958369 0.285533 544.317 757.729)" stroke="#3C6370" stroke-width="20"/>
<line y1="-10" x2="714.486" y2="-10" transform="matrix(0.745224 0.666815 -0.64219 0.766546 321.594 152)" stroke="#24FF00" stroke-width="20"/>
<line y1="-10" x2="712.076" y2="-10" transform="matrix(-0.764117 0.645078 -0.620103 -0.78452 724.059 170.172)" stroke="black" stroke-width="20"/>
<line y1="-10" x2="712.076" y2="-10" transform="matrix(-0.764117 0.645078 -0.620103 -0.78452 724.059 170.172)" stroke="url(#paint3_linear)" stroke-width="20"/>
<line y1="-10" x2="101.969" y2="-10" transform="matrix(-0.0102933 -0.999947 0.99994 -0.0109937 536.05 673.964)" stroke="black" stroke-width="20"/>
<line x1="524.063" y1="576.224" x2="392.051" y2="857.252" stroke="#00FFE0" stroke-width="20"/>
<line y1="-10" x2="326.47" y2="-10" transform="matrix(0.454811 0.890588 -0.877901 0.478843 515.012 571.972)" stroke="black" stroke-width="20"/>
<line y1="-10" x2="326.47" y2="-10" transform="matrix(0.454811 0.890588 -0.877901 0.478843 515.012 571.972)" stroke="url(#paint4_linear)" stroke-width="20"/>
<line x1="383.136" y1="852.722" x2="663.494" y2="852.722" stroke="#5CCDB2" stroke-width="20"/>
<line y1="-10" x2="409.158" y2="-10" transform="matrix(0.680431 0.732812 -0.710044 0.704158 123.292 818.302)" stroke="black" stroke-width="20"/>
<line y1="-10" x2="409.158" y2="-10" transform="matrix(0.680431 0.732812 -0.710044 0.704158 123.292 818.302)" stroke="url(#paint5_linear)" stroke-width="20"/>
<path d="M631.5 1087L914.5 788.5" stroke="#3C6370" stroke-width="20"/>
<line x1="1215.31" y1="117.143" x2="1838.23" y2="10.5755" stroke="#D8A3D2" stroke-width="20"/>
<line x1="1215.84" y1="118.202" x2="1147.84" y2="204.202" stroke="black" stroke-width="20"/>
<line x1="1150" y1="198" x2="1150" y2="284" stroke="black" stroke-width="20"/>
<line x1="1147.36" y1="277.234" x2="1181.36" y2="314.234" stroke="black" stroke-width="20"/>
<line x1="1176.66" y1="311.361" x2="1357.66" y2="361.361" stroke="#81DEC2" stroke-width="20"/>
<line x1="1353.67" y1="361.089" x2="1435.67" y2="350.089" stroke="#81DEC2" stroke-width="20"/>
<line x1="1756.41" y1="311.127" x2="1985.44" y2="274.284" stroke="black" stroke-width="20"/>
<line x1="1979.99" y1="276.869" x2="2038.99" y2="218.869" stroke="black" stroke-width="20"/>
<line x1="1834.73" y1="10.3812" x2="2038.73" y2="68.3812" stroke="#00FFE0" stroke-width="20"/>
<line x1="2035.27" y1="62.2521" x2="2073.27" y2="156.252" stroke="black" stroke-width="20"/>
<line x1="2073.09" y1="152.175" x2="2039.09" y2="226.175" stroke="black" stroke-width="20"/>
<line x1="1446.99" y1="360.359" x2="1417.99" y2="1167.36" stroke="#00FFE0" stroke-width="20"/>
<line x1="1417.46" y1="1163.75" x2="1440.46" y2="1230.75" stroke="#5CCDB2" stroke-width="20"/>
<line x1="1437.33" y1="1226.26" x2="1470.33" y2="1253.26" stroke="#9A3690" stroke-width="20"/>
<line x1="1466.47" y1="1251.31" x2="1619.47" y2="1290.31" stroke="#3C6370" stroke-width="20"/>
<line x1="1615" y1="1290.2" x2="1659" y2="1281.2" stroke="#9A3690" stroke-width="20"/>
<line x1="1653.48" y1="1284.41" x2="1703.48" y2="1227.41" stroke="#001AFF" stroke-width="20"/>
<path d="M1715.5 1196.5L1703.5 1232.5" stroke="black" stroke-width="20"/>
<line x1="1713.01" y1="1200.6" x2="1748.01" y2="320.603" stroke="#FF0000" stroke-width="20"/>
<line x1="1435.79" y1="350.073" x2="1756.79" y2="311.073" stroke="#5CCDB2" stroke-width="20"/>
<line x1="1451.02" y1="363.156" x2="1201.02" y2="119.156" stroke="#24FF00" stroke-width="20"/>
<line x1="1748.37" y1="318.322" x2="1830.62" y2="22.3935" stroke="#EEEBA1" stroke-width="20"/>
<line x1="1414.83" y1="1157.03" x2="1727.83" y2="835.03" stroke="#FF0000" stroke-width="20"/>
<line x1="1715.18" y1="1198.23" x2="1426.18" y2="835.229" stroke="#9A3690" stroke-width="20"/>
<line x1="1211.33" y1="117.569" x2="1761.33" y2="311.569" stroke="#5CCDB2" stroke-width="20"/>
<line x1="1838.65" y1="15.4657" x2="1443.65" y2="367.466" stroke="#3C6370" stroke-width="20"/>
<line x1="1445.56" y1="362.834" x2="1728.56" y2="831.834" stroke="#3C6370" stroke-width="20"/>
<path d="M1428 829L1749.6 315.58" stroke="#24FF00" stroke-width="20"/>
<line x1="2035.73" y1="68.2955" x2="1985.73" y2="280.296" stroke="#FF0000" stroke-width="20"/>
<line x1="2036.08" y1="227.24" x2="2016.08" y2="67.2404" stroke="black" stroke-width="20"/>
<line x1="1979.06" y1="277.918" x2="2074.06" y2="153.918" stroke="#24FF00" stroke-width="20"/>
<line x1="1149.62" y1="195.274" x2="1183.62" y2="315.274" stroke="#001AFF" stroke-width="20"/>
<line x1="1147.33" y1="288.441" x2="1183.33" y2="152.441" stroke="#FF0000" stroke-width="20"/>
</g>
<path d="M209.5 606L338.5 170.5L527.5 338L209.5 606Z" fill="#6EECE4" stroke="black"/>
<path d="M559.5 338L731 195L843.5 596.5L559.5 338Z" fill="#6EECD4" stroke="black"/>
<path d="M195.5 646L543 354.5L854 631.5L902 785.5L648.5 1049.5L598 865.5L682.5 855L535 565L516 574L381 845.5V865.5H465.5L404.5 1090.5L148.5 809L195.5 646Z" fill="#6EECD4" stroke="black"/>
<path d="M361 1267L60.5 1294L33.5 1188L401 1117.5L361 1267Z" fill="#6EECD4"/>
<path d="M963.5 1008.5L653.5 1092L735.5 1218.5L1016 1188L963.5 1008.5Z" fill="#6EECD4"/>
<path d="M361 1267L60.5 1294L33.5 1188L401 1117.5L361 1267Z" stroke="black"/>
<path d="M361 1267L60.5 1294L33.5 1188L401 1117.5L361 1267Z" stroke="url(#paint6_linear)"/>
<path d="M963.5 1008.5L653.5 1092L735.5 1218.5L1016 1188L963.5 1008.5Z" stroke="black"/>
<path d="M963.5 1008.5L653.5 1092L735.5 1218.5L1016 1188L963.5 1008.5Z" stroke="url(#paint7_linear)"/>
<path d="M1807 28.5L1278.5 124.5L1581 239.5L1807 28.5Z" fill="#6EECD4"/>
<path d="M1443 837L1581 630L1715.5 837L1554.5 990.5L1443 837Z" fill="#6EECD4"/>
<path d="M1807 28.5L1278.5 124.5L1581 239.5L1807 28.5Z" stroke="black"/>
<path d="M1443 837L1581 630L1715.5 837L1554.5 990.5L1443 837Z" stroke="black"/>
<path d="M1776.5 300.5L1849.5 28.5L2006.5 86V136L1972 270L1776.5 300.5Z" fill="#6EECD4"/>
<path d="M1167.5 235.5L1209.5 136L1408.5 354H1362.5L1186.5 296.5L1167.5 235.5Z" fill="#6EECD4"/>
<path d="M1431.5 1166.5L1569.5 1032.5L1692.5 1216.5L1619.5 1281.5L1454.5 1216.5L1431.5 1166.5Z" fill="#6EECD4"/>
<path d="M1776.5 300.5L1849.5 28.5L2006.5 86V136L1972 270L1776.5 300.5Z" stroke="black"/>
<path d="M1167.5 235.5L1209.5 136L1408.5 354H1362.5L1186.5 296.5L1167.5 235.5Z" stroke="black"/>
<path d="M1431.5 1166.5L1569.5 1032.5L1692.5 1216.5L1619.5 1281.5L1454.5 1216.5L1431.5 1166.5Z" stroke="black"/>
<defs>
<filter id="filter0_di" x="0" y="0.718689" width="2086.54" height="1322.28" filterUnits="userSpaceOnUse" color-interpolation-filters="sRGB">
<feFlood flood-opacity="0" result="BackgroundImageFix"/>
<feColorMatrix in="SourceAlpha" type="matrix" values="0 0 0 0 0 0 0 0 0 0 0 0 0 0 0 0 0 0 127 0"/>
<feOffset dy="4"/>
<feGaussianBlur stdDeviation="2"/>
<feColorMatrix type="matrix" values="0 0 0 0 0 0 0 0 0 0 0 0 0 0 0 0 0 0 0.25 0"/>
<feBlend mode="normal" in2="BackgroundImageFix" result="effect1_dropShadow"/>
<feBlend mode="normal" in="SourceGraphic" in2="effect1_dropShadow" result="shape"/>
<feColorMatrix in="SourceAlpha" type="matrix" values="0 0 0 0 0 0 0 0 0 0 0 0 0 0 0 0 0 0 127 0" result="hardAlpha"/>
<feOffset dx="4" dy="4"/>
<feGaussianBlur stdDeviation="2"/>
<feComposite in2="hardAlpha" operator="arithmetic" k2="-1" k3="1"/>
<feColorMatrix type="matrix" values="0 0 0 0 0 0 0 0 0 0 0 0 0 0 0 0 0 0 0.25 0"/>
<feBlend mode="normal" in2="shape" result="effect2_innerShadow"/>
</filter>
<linearGradient id="paint0_linear" x1="534" y1="768.5" x2="534.33" y2="769.444" gradientUnits="userSpaceOnUse">
<stop stop-color="#2D9A94"/>
<stop offset="1" stop-color="#429B96" stop-opacity="0.97"/>
</linearGradient>
<linearGradient id="paint1_linear" x1="199.87" y1="0" x2="199.87" y2="1" gradientUnits="userSpaceOnUse">
<stop stop-color="#2D9A94"/>
<stop offset="1" stop-color="#429B96" stop-opacity="0.97"/>
</linearGradient>
<linearGradient id="paint2_linear" x1="166.719" y1="0" x2="166.719" y2="1" gradientUnits="userSpaceOnUse">
<stop stop-color="#FF0000"/>
<stop offset="1" stop-color="white" stop-opacity="0"/>
</linearGradient>
<linearGradient id="paint3_linear" x1="356.038" y1="0" x2="356.038" y2="1" gradientUnits="userSpaceOnUse">
<stop stop-color="#2D9A94"/>
<stop offset="1" stop-color="#429B96" stop-opacity="0.97"/>
</linearGradient>
<linearGradient id="paint4_linear" x1="163.235" y1="0" x2="163.235" y2="1" gradientUnits="userSpaceOnUse">
<stop stop-color="#FF0000"/>
<stop offset="1" stop-color="white" stop-opacity="0"/>
</linearGradient>
<linearGradient id="paint5_linear" x1="204.579" y1="0" x2="204.579" y2="1" gradientUnits="userSpaceOnUse">
<stop stop-color="#FF0000"/>
<stop offset="1" stop-color="white" stop-opacity="0"/>
</linearGradient>
<linearGradient id="paint6_linear" x1="524.75" y1="1008.5" x2="524.75" y2="1294" gradientUnits="userSpaceOnUse">
<stop stop-color="white"/>
<stop offset="1" stop-color="white" stop-opacity="0"/>
</linearGradient>
<linearGradient id="paint7_linear" x1="524.75" y1="1008.5" x2="524.75" y2="1294" gradientUnits="userSpaceOnUse">
<stop stop-color="white"/>
<stop offset="1" stop-color="white" stop-opacity="0"/>
</linearGradient>
</defs>
</svg>
