<svg width="711" height="574" viewBox="0 0 1093 869" fill="none" xmlns="http://www.w3.org/2000/svg">
                <g id="New Text Document 1" clip-path="url(#clip0)">
                <g id="back" filter="url(#filter0_d)">
                <path d="M1088.83 560.849C1079.88 667.721 994.324 755.766 870.492 803.353C791.096 833.871 695.953 847.757 595.185 839.318C460.944 828.076 361.973 778.555 290.198 709.38C224.039 645.635 180.993 565.187 154.736 482.624C37.5228 113.994 291.317 37.3593 648.378 204.155C875.718 310.364 1103.51 385.459 1088.83 560.849Z" fill="url(#paint0_linear)"/>
                <path d="M153.307 483.078L154.721 482.629L153.307 483.078C179.62 565.818 222.777 646.503 289.157 710.46C361.191 779.885 460.49 829.543 595.06 840.813C696.037 849.269 791.408 835.358 871.03 804.753C995.162 757.05 1081.31 668.635 1090.32 560.975C1097.74 472.435 1043.86 409.371 960.177 355.299C898.293 315.313 819.808 280.054 737.179 242.934C708.122 229.88 678.552 216.596 649.012 202.796L648.384 204.141L649.012 202.796C559.654 161.053 476.701 134.514 404.344 123.976C332.005 113.44 270.139 118.883 223.061 141.25C175.915 163.649 143.732 202.961 130.744 259.808C117.773 316.585 123.96 390.784 153.307 483.078Z" stroke="url(#paint1_linear)" stroke-width="3"/>
                </g>
                <g id="undraw coding 6mjf 1">
                <g id="plants">
                <path id="Vector" d="M402.739 466.952C402.739 466.952 465.729 524.616 430.173 610.147C394.617 695.679 491.117 838.032 491.117 838.032C491.117 838.032 490.086 837.89 488.169 837.584C358.803 816.679 294.524 681.234 366.495 580.643C393.207 543.2 415.158 499.321 402.739 466.952Z" fill="#6C63FF"/>
                <path id="Vector_2" d="M402.739 456.724C402.739 456.724 438.295 527.409 402.739 585.065C367.183 642.72 396.645 804.578 491.126 827.804" stroke="#535461" stroke-width="1.26302" stroke-miterlimit="10"/>
                <path id="Vector_3" d="M290.544 699.385C290.544 699.385 362.421 688.905 368.97 747.874C375.519 806.844 507.189 815.019 507.189 815.019C507.189 815.019 506.33 815.554 504.722 816.521C396.009 881.825 292.091 858.135 307.759 771.391C313.578 739.141 313.097 706.749 290.544 699.385Z" fill="#6C63FF"/>
                <path id="Vector_4" opacity="0.2" d="M290.544 700.172C290.544 700.172 362.421 689.692 368.97 748.661C375.519 807.631 507.189 815.805 507.189 815.805C507.189 815.805 506.33 816.34 504.722 817.308C396.009 882.611 292.091 858.921 307.759 772.178C313.578 739.928 313.097 707.536 290.544 700.172Z" fill="#F5F5F5"/>
                <path id="Vector_5" d="M290.544 700.172C290.544 700.172 346.332 711.383 341.751 757.819C337.17 804.255 424.603 859.952 507.189 815.806" stroke="#535461" stroke-width="1.26302" stroke-miterlimit="10"/>
                </g>
                <g id="Group" opacity="0.1">
                <path id="Vector_6" opacity="0.1" d="M701.995 357.928L702.081 357.88C700.127 358.541 698.224 359.286 696.374 360.115C685.985 364.77 677.231 372 671.109 380.984C664.987 389.968 661.744 400.345 661.746 410.933C661.746 411.39 661.746 411.846 661.746 412.302C663.667 412.255 665.555 411.84 667.29 411.083C682.348 404.647 691.355 384.962 694.93 371.232C696.219 366.315 697.431 360.776 701.995 357.928Z" fill="black"/>
                <path id="Vector_7" opacity="0.1" d="M749.274 359.509C744.384 357.453 739.221 355.995 733.915 355.174C738.266 356.09 742.151 358.325 744.942 361.515C746.31 363.218 747.444 365.068 748.32 367.023C740.099 363.733 731.195 362.116 722.225 362.286C713.254 362.456 704.431 364.408 696.365 368.006C700.242 375.788 712.265 380.028 720.293 382.869C729.083 385.974 737.963 388.814 746.936 391.39L738.995 385.489L756.932 388.101C757.125 384.833 756.701 381.559 755.677 378.423C759.115 380.957 763.67 381.807 767.4 383.931C774.387 387.967 777.301 395.733 781.108 402.46C782.114 404.238 783.3 406.055 785.113 407.18C784.38 397.017 780.663 387.223 774.356 378.833C768.047 370.442 759.382 363.766 749.274 359.509Z" fill="black"/>
                </g>
                <g id="Man">
                <path id="Vector_8" d="M723.739 434.804C764.627 434.804 797.774 413.955 797.774 388.235C797.774 362.515 764.627 341.665 723.739 341.665C682.851 341.665 649.705 362.515 649.705 388.235C649.705 413.955 682.851 434.804 723.739 434.804Z" fill="#E14B5A"/>
                <path id="Vector_9" d="M676.28 433.349C676.28 433.349 691.75 507.362 676.28 527.323C660.809 547.283 723.55 555.183 723.55 555.183L788.491 533.562L797.576 480.336C797.576 480.336 758.04 459.958 766.231 418.793L676.28 433.349Z" fill="#F7C4A7"/>
                <path id="Vector_10" d="M867.957 682.839C867.957 682.839 872.048 699.054 849.788 701.965C836.644 703.736 823.278 703.589 810.184 701.533L805.277 660.801H857.059L867.957 682.839Z" fill="#F7C4A7"/>
                <path id="Vector_11" d="M474.889 662.083C474.889 662.083 465.057 698.661 487.317 701.965C509.577 705.27 591.312 705.293 591.312 705.293V662.02L554.304 669.259L519.564 638.763L474.889 662.083Z" fill="#F7C4A7"/>
                <path id="Vector_12" opacity="0.1" d="M681.058 457.259L594.072 474.096C594.072 474.096 560.914 475.347 539.565 515.678C518.216 556.009 471.882 671.194 471.882 671.194C471.882 671.194 511.418 634.601 557.734 673.688L588.623 622.547L581.808 703.633H821.151V665.372C821.151 665.372 871.111 689.904 867.484 703.625C867.484 703.625 910.243 602.775 901.003 556.945C898.222 542.777 896.516 528.449 895.898 514.065C895.352 502.219 890.815 490.816 882.908 481.425C875.002 472.033 864.114 465.111 851.739 461.61C847.235 460.343 842.285 459.155 836.784 458.093C785.457 448.117 772.325 458.093 772.325 458.093C772.325 458.093 762.381 487.708 762.561 501.13C762.785 518.385 735.763 529.825 735.763 529.825C735.763 529.825 695.79 521.091 693.976 514.026C692.163 506.961 677.861 465.576 681.058 457.259Z" fill="black"/>
                <path id="Vector_13" d="M681.058 455.599L594.072 472.436C594.072 472.436 560.914 473.687 539.565 514.018C518.216 554.349 471.874 669.55 471.874 669.55C471.874 669.55 511.409 632.956 557.725 672.044L588.615 620.903L581.799 701.965H821.151V663.712C821.151 663.712 871.111 688.244 867.484 701.965C867.484 701.965 910.243 601.115 901.003 555.285C898.222 541.116 896.516 526.789 895.898 512.405C895.352 500.558 890.815 489.156 882.908 479.765C875.002 470.373 864.114 463.451 851.739 459.95C847.235 458.683 842.285 457.495 836.784 456.433C785.457 446.457 772.325 456.433 772.325 456.433C772.325 456.433 762.381 486.048 762.561 499.47C762.785 516.725 735.763 528.164 735.763 528.164C735.763 528.164 695.79 519.431 693.976 512.366C692.163 505.3 677.861 463.916 681.058 455.599Z" fill="#575988"/>
                <path id="Vector_14" opacity="0.1" d="M769.944 452.067C766.29 442.597 765.471 432.404 767.572 422.546L677.621 437.094C677.621 437.094 678.918 443.317 680.388 452.641C686.2 458.162 693.178 462.543 700.897 465.517C708.617 468.492 716.917 469.999 725.292 469.945C733.668 469.891 741.944 468.278 749.617 465.205C757.29 462.132 764.2 457.661 769.927 452.067H769.944Z" fill="black"/>
                <path id="Vector_15" d="M785.285 409.651C785.215 424.489 778.778 438.707 767.36 449.24C755.944 459.772 740.463 465.775 724.256 465.955C708.048 466.134 692.413 460.476 680.721 450.199C669.029 439.923 662.218 425.852 661.755 411.02C661.755 410.564 661.755 410.107 661.755 409.651C661.752 399.062 664.996 388.685 671.118 379.701C677.24 370.718 685.993 363.487 696.383 358.832C698.233 358.004 700.136 357.259 702.089 356.598C712.252 353.178 723.212 352.245 733.89 353.891C747.573 356.024 760.071 362.317 769.367 371.753C778.663 381.19 784.214 393.219 785.122 405.898C785.231 407.141 785.285 408.392 785.285 409.651Z" fill="#F7C4A7"/>
                <path id="Vector_16" d="M701.995 356.645L702.081 356.598C700.127 357.259 698.224 358.004 696.374 358.832C685.985 363.487 677.231 370.718 671.109 379.701C664.987 388.685 661.744 399.062 661.746 409.651C661.746 410.107 661.746 410.564 661.746 411.02C663.667 410.973 665.555 410.557 667.29 409.8C682.348 403.365 691.355 383.679 694.93 369.95C696.219 365.064 697.431 359.501 701.995 356.645Z" fill="#632652"/>
                <path id="Vector_17" d="M749.274 358.234C744.384 356.179 739.221 354.721 733.915 353.899C738.266 354.816 742.152 357.05 744.942 360.241C746.31 361.943 747.444 363.793 748.32 365.748C740.099 362.458 731.195 360.841 722.225 361.011C713.254 361.181 704.431 363.133 696.365 366.732C700.242 374.513 712.265 378.754 720.293 381.594C729.083 384.7 737.963 387.54 746.936 390.115L738.995 384.214L756.932 386.826C757.125 383.559 756.701 380.284 755.677 377.149C759.115 379.682 763.67 380.532 767.4 382.656C774.387 386.693 777.301 394.458 781.108 401.185C782.114 402.963 783.3 404.781 785.114 405.906C784.38 395.742 780.663 385.948 774.356 377.558C768.047 369.168 759.382 362.492 749.274 358.234Z" fill="#632652"/>
                <path id="Vector_18" opacity="0.1" d="M602.461 554.978C602.461 554.978 588.838 588.243 607.91 618.181C626.981 648.118 591.107 660.596 591.107 660.596" fill="black"/>
                <path id="Vector_19" opacity="0.1" d="M823.214 525.041C823.214 525.041 846.831 552.484 831.387 577.016C815.943 601.548 816.854 660.596 816.854 660.596" fill="black"/>
                <path id="Vector_20" d="M581.567 685.128H844.107C849.89 685.128 855.436 687.231 859.525 690.975C863.614 694.718 865.912 699.795 865.912 705.089H559.771C559.771 699.796 562.067 694.721 566.154 690.977C570.242 687.234 575.785 685.131 581.567 685.128Z" fill="#535461"/>
                <path id="Vector_21" opacity="0.1" d="M658.334 366.401C658.334 366.401 720.834 309.218 788.242 365.355" stroke="black" stroke-width="0.631512" stroke-miterlimit="10"/>
                </g>
                <g id="table">
                <path id="Vector_22" d="M1020.04 705.349H354.205V869H1020.04V705.349Z" fill="#D6D6E3"/>
                <path id="Vector_23" opacity="0.1" d="M1020.04 716.364H354.205V737.607H1020.04V716.364Z" fill="black"/>
                <path id="Vector_24" d="M1064.69 702.988H309.538V724.231H1064.69V702.988Z" fill="#D6D6E3"/>
                </g>
                <g id="hat">
                <path id="Vector_25" opacity="0.1" d="M656.495 402.688C656.495 402.688 720.095 330.304 793.674 402.688L787.314 386.472C787.314 386.472 752.789 340.319 728.269 350.28C703.748 360.241 679.666 367.33 679.666 367.33L656.495 402.688Z" fill="black"/>
                <path id="Vector_26" d="M656.495 401.405C656.495 401.405 720.095 329.021 793.674 401.405L787.314 385.19C787.314 385.19 752.789 339.037 728.269 348.998C703.748 358.958 679.666 366.047 679.666 366.047L656.495 401.405Z" fill="#E14B5A"/>
                <path id="Vector_27" d="M724.96 281.271C742.185 281.271 758.706 287.535 770.886 298.686C783.066 309.836 789.909 324.959 789.909 340.728V366.094H660.01V340.728C660.01 324.959 666.853 309.836 679.033 298.686C691.214 287.535 707.734 281.271 724.96 281.271Z" fill="#E14B5A"/>
                </g>
                <g id="headphone">
                <path id="Vector_28" d="M804.976 362.869H798.702V395.434H804.976V362.869Z" fill="#6A5C99"/>
                <path id="Vector_29" d="M790.33 383.939C796.066 383.939 801.565 386.024 805.621 389.737C809.676 393.449 811.955 398.484 811.955 403.734V405.009C811.955 410.259 809.676 415.294 805.621 419.007C801.565 422.719 796.066 424.804 790.33 424.804V383.939Z" fill="#FFD037"/>
                <path id="Vector_30" d="M795.908 386.496C795.908 384.028 793.723 382.027 791.027 382.027C788.331 382.027 786.145 384.028 786.145 386.496V422.255C786.145 424.723 788.331 426.724 791.027 426.724C793.723 426.724 795.908 424.723 795.908 422.255V386.496Z" fill="#6A5C99"/>
                <path id="Vector_31" d="M642.847 396.071H649.121V363.506H642.847V396.071Z" fill="#6A5C99"/>
                <path id="Vector_32" d="M657.492 425.442C651.757 425.442 646.257 423.356 642.201 419.644C638.146 415.931 635.868 410.896 635.868 405.646V404.372C635.868 401.772 636.427 399.198 637.514 396.796C638.601 394.394 640.194 392.213 642.201 390.374C644.21 388.536 646.593 387.078 649.217 386.083C651.84 385.088 654.652 384.576 657.492 384.576V425.442Z" fill="#FFD037"/>
                <path id="Vector_33" d="M651.914 422.885C651.914 425.353 654.1 427.354 656.796 427.354C659.492 427.354 661.677 425.353 661.677 422.885V387.125C661.677 384.657 659.492 382.656 656.796 382.656C654.1 382.656 651.914 384.657 651.914 387.125V422.885Z" fill="#6A5C99"/>
                <path id="Vector_34" d="M797.962 328.061C789.462 311.885 770.95 292.325 731.045 290.76V290.712H730.563L716.425 291.326V291.389C676.787 293.057 658.36 312.546 649.886 328.667C644.242 339.596 641.245 351.512 641.102 363.6L645.984 363.49L650.865 363.388C651.076 352.626 653.78 342.028 658.798 332.294C669.559 312.058 689.361 301.303 717.646 300.303L730.151 299.666C758.453 300.657 778.264 311.429 789.015 331.657C794.042 341.394 796.752 351.998 796.966 362.766L801.847 362.869L806.729 362.979C806.589 350.898 803.598 338.987 797.962 328.061Z" fill="#FFD037"/>
                </g>
                <g id="Bricks">
                <path id="Vector_35" opacity="0.2" d="M991.367 472.46H946.675V493.703H991.367V472.46Z" fill="#0F00FF"/>
                <path id="Vector_36" opacity="0.2" d="M994.805 498.424H950.113V519.667H994.805V498.424Z" fill="#0F00FF"/>
                <path id="Vector_37" opacity="0.2" d="M957.848 318.25H913.156V339.493H957.848V318.25Z" fill="#0F00FF"/>
                <path id="Vector_38" opacity="0.2" d="M989.648 342.64H944.956V363.884H989.648V342.64Z" fill="#0F00FF"/>
                <path id="Vector_39" opacity="0.2" d="M903.702 319.824H859.01V341.067H903.702V319.824Z" fill="#0F00FF"/>
                <path id="Vector_40" opacity="0.2" d="M1047.23 367.031H1002.54V388.274H1047.23V367.031Z" fill="#0F00FF"/>
                <path id="Vector_41" opacity="0.2" d="M993.086 368.604H948.394V389.848H993.086V368.604Z" fill="#0F00FF"/>
                <path id="Vector_42" opacity="0.2" d="M935.502 344.214H890.81V365.457H935.502V344.214Z" fill="#0F00FF"/>
                <path id="Vector_43" opacity="0.2" d="M1044.65 530.682H999.962V551.925H1044.65V530.682Z" fill="#0F00FF"/>
                <path id="Vector_44" opacity="0.2" d="M990.508 532.256H945.816V553.499H990.508V532.256Z" fill="#0F00FF"/>
                <path id="Vector_45" opacity="0.2" d="M335.598 473.247H290.906V494.49H335.598V473.247Z" fill="#0F00FF"/>
                <path id="Vector_46" opacity="0.2" d="M367.397 497.637H322.705V518.88H367.397V497.637Z" fill="#0F00FF"/>
                <path id="Vector_47" opacity="0.2" d="M608.906 249.8H564.214V271.043H608.906V249.8Z" fill="#0F00FF"/>
                <path id="Vector_48" opacity="0.2" d="M961.286 641.619H916.594V662.862H961.286V641.619Z" fill="#0F00FF"/>
                <path id="Vector_49" opacity="0.2" d="M370.835 523.601H326.143V544.844H370.835V523.601Z" fill="#0F00FF"/>
                <path id="Vector_50" opacity="0.2" d="M640.707 274.19H596.015V295.433H640.707V274.19Z" fill="#0F00FF"/>
                <path id="Vector_51" opacity="0.2" d="M469.992 409.517H425.299V430.76H469.992V409.517Z" fill="#0F00FF"/>
                <path id="Vector_52" opacity="0.2" d="M509.209 442.562H464.517V463.805H509.209V442.562Z" fill="#0F00FF"/>
                <path id="Vector_53" opacity="0.2" d="M594.296 429.187H549.604V450.43H594.296V429.187Z" fill="#0F00FF"/>
                <path id="Vector_54" opacity="0.2" d="M512.647 468.526H467.955V489.769H512.647V468.526Z" fill="#0F00FF"/>
                <path id="Vector_55" opacity="0.2" d="M1021.45 641.619H976.757V662.862H1021.45V641.619Z" fill="#0F00FF"/>
                </g>
                <g id="Laptop">
                <path id="Vector_56" d="M608.279 547.905H817.404C821.806 547.905 826.164 548.699 830.231 550.241C834.297 551.783 837.993 554.043 841.105 556.892C844.218 559.741 846.686 563.124 848.371 566.847C850.055 570.57 850.923 574.56 850.923 578.59V689.699H574.76V578.59C574.76 570.452 578.292 562.647 584.578 556.892C590.864 551.138 599.39 547.905 608.279 547.905Z" fill="#535461"/>
                <path id="Vector_57" d="M712.609 640.014C721.642 640.014 728.965 633.311 728.965 625.041C728.965 616.772 721.642 610.069 712.609 610.069C703.576 610.069 696.254 616.772 696.254 625.041C696.254 633.311 703.576 640.014 712.609 640.014Z" fill="white"/>
                </g>
                </g>
                </g>
                <defs>
                <filter id="filter0_d" x="77.6325" y="99.3602" width="1049.96" height="790.311" filterUnits="userSpaceOnUse" color-interpolation-filters="sRGB">
                <feFlood flood-opacity="0" result="BackgroundImageFix"/>
                <feColorMatrix in="SourceAlpha" type="matrix" values="0 0 0 0 0 0 0 0 0 0 0 0 0 0 0 0 0 0 127 0"/>
                <feOffset dy="4"/>
                <feGaussianBlur stdDeviation="2"/>
                <feColorMatrix type="matrix" values="0 0 0 0 0 0 0 0 0 0 0 0 0 0 0 0 0 0 0.25 0"/>
                <feBlend mode="normal" in2="BackgroundImageFix" result="effect1_dropShadow"/>
                <feBlend mode="normal" in="SourceGraphic" in2="effect1_dropShadow" result="shape"/>
                </filter>
                <linearGradient id="paint0_linear" x1="882" y1="284.5" x2="247.223" y2="849.6" gradientUnits="userSpaceOnUse">
                <stop stop-color="#9DCAFF"/>
                <stop offset="0.966182" stop-color="white"/>
                <stop offset="1" stop-color="white"/>
                </linearGradient>
                <linearGradient id="paint1_linear" x1="944" y1="261" x2="264.5" y2="801.5" gradientUnits="userSpaceOnUse">
                <stop stop-color="white" stop-opacity="0"/>
                <stop offset="1" stop-color="#DDD3D0" stop-opacity="0.61"/>
                </linearGradient>
                <clipPath id="clip0">
                <rect width="1093" height="869" fill="white"/>
                </clipPath>
                </defs>
                </svg>